<svg width="47" height="41" viewBox="0 0 47 41" fill="none" xmlns="http://www.w3.org/2000/svg">
<g id="jam:deviantart-square">
<g id="Group">
<path id="Vector" d="M29.8724 11.9754H25.8147L24.1423 14.7224C24.0407 14.8869 23.8897 15.0243 23.7055 15.1197C23.5213 15.215 23.3108 15.2649 23.0966 15.264H17.1746V19.6253H20.3804C20.7368 19.6253 20.9659 19.9448 20.8014 20.213L17.1746 26.1717V29.0588H21.2264L22.8968 26.3135C22.9987 26.1493 23.1498 26.0123 23.334 25.9172C23.5182 25.8221 23.7285 25.7725 23.9426 25.7736H29.8763V21.4105H26.6607C26.5806 21.4121 26.5015 21.3954 26.431 21.3622C26.3605 21.329 26.3011 21.2804 26.2586 21.2212C26.2162 21.1619 26.1921 21.094 26.1888 21.0242C26.1855 20.9544 26.203 20.885 26.2397 20.8229L29.8744 14.8522V11.9771L29.8724 11.9754Z" fill="#FF9900"/>
<path id="Vector_2" d="M11.75 6.83333C10.7112 6.83333 9.71498 7.1933 8.98046 7.83405C8.24594 8.4748 7.83329 9.34384 7.83329 10.25V30.75C7.83329 31.6562 8.24594 32.5252 8.98046 33.1659C9.71498 33.8067 10.7112 34.1667 11.75 34.1667H35.25C36.2887 34.1667 37.2849 33.8067 38.0195 33.1659C38.754 32.5252 39.1666 31.6562 39.1666 30.75V10.25C39.1666 9.34384 38.754 8.4748 38.0195 7.83405C37.2849 7.1933 36.2887 6.83333 35.25 6.83333H11.75ZM11.75 3.41667H35.25C37.3275 3.41667 39.3199 4.13661 40.789 5.4181C42.258 6.6996 43.0833 8.43769 43.0833 10.25V30.75C43.0833 32.5623 42.258 34.3004 40.789 35.5819C39.3199 36.8634 37.3275 37.5833 35.25 37.5833H11.75C9.67243 37.5833 7.67999 36.8634 6.21096 35.5819C4.74192 34.3004 3.91663 32.5623 3.91663 30.75V10.25C3.91663 8.43769 4.74192 6.6996 6.21096 5.4181C7.67999 4.13661 9.67243 3.41667 11.75 3.41667Z" fill="#FF9900"/>
</g>
</g>
</svg>
