<svg width="48" height="44" viewBox="0 0 48 44" fill="none" xmlns="http://www.w3.org/2000/svg">
<g id="mdi:instagram">
<path id="Vector" d="M15.6 3.66667H32.4C38.8 3.66667 44 8.43333 44 14.3V29.7C44 32.5201 42.7779 35.2248 40.6024 37.2189C38.427 39.213 35.4765 40.3333 32.4 40.3333H15.6C9.2 40.3333 4 35.5667 4 29.7V14.3C4 11.4799 5.22214 8.77523 7.39756 6.7811C9.57298 4.78696 12.5235 3.66667 15.6 3.66667ZM15.2 7.33333C13.2904 7.33333 11.4591 8.02869 10.1088 9.26643C8.75857 10.5042 8 12.1829 8 13.9333V30.0667C8 33.715 11.22 36.6667 15.2 36.6667H32.8C34.7096 36.6667 36.5409 35.9713 37.8912 34.7336C39.2414 33.4958 40 31.8171 40 30.0667V13.9333C40 10.285 36.78 7.33333 32.8 7.33333H15.2ZM34.5 10.0833C35.163 10.0833 35.7989 10.3248 36.2678 10.7545C36.7366 11.1843 37 11.7672 37 12.375C37 12.9828 36.7366 13.5657 36.2678 13.9955C35.7989 14.4252 35.163 14.6667 34.5 14.6667C33.837 14.6667 33.2011 14.4252 32.7322 13.9955C32.2634 13.5657 32 12.9828 32 12.375C32 11.7672 32.2634 11.1843 32.7322 10.7545C33.2011 10.3248 33.837 10.0833 34.5 10.0833ZM24 12.8333C26.6522 12.8333 29.1957 13.7991 31.0711 15.5182C32.9464 17.2373 34 19.5688 34 22C34 24.4312 32.9464 26.7627 31.0711 28.4818C29.1957 30.2009 26.6522 31.1667 24 31.1667C21.3478 31.1667 18.8043 30.2009 16.9289 28.4818C15.0536 26.7627 14 24.4312 14 22C14 19.5688 15.0536 17.2373 16.9289 15.5182C18.8043 13.7991 21.3478 12.8333 24 12.8333ZM24 16.5C22.4087 16.5 20.8826 17.0795 19.7574 18.1109C18.6321 19.1424 18 20.5413 18 22C18 23.4587 18.6321 24.8576 19.7574 25.8891C20.8826 26.9205 22.4087 27.5 24 27.5C25.5913 27.5 27.1174 26.9205 28.2426 25.8891C29.3679 24.8576 30 23.4587 30 22C30 20.5413 29.3679 19.1424 28.2426 18.1109C27.1174 17.0795 25.5913 16.5 24 16.5Z" fill="#FF9900"/>
</g>
</svg>
