<svg width="48" height="46" viewBox="0 0 48 46" fill="none" xmlns="http://www.w3.org/2000/svg">
<g id="mingcute:linkedin-line" clip-path="url(#clip0_18_24)">
<g id="Group">
<path id="Vector" d="M36 5.75C37.5913 5.75 39.1174 6.3558 40.2426 7.43414C41.3679 8.51247 42 9.97501 42 11.5V34.5C42 36.025 41.3679 37.4875 40.2426 38.5659C39.1174 39.6442 37.5913 40.25 36 40.25H12C10.4087 40.25 8.88258 39.6442 7.75736 38.5659C6.63214 37.4875 6 36.025 6 34.5V11.5C6 9.97501 6.63214 8.51247 7.75736 7.43414C8.88258 6.3558 10.4087 5.75 12 5.75H36ZM36 9.58333H12C11.4696 9.58333 10.9609 9.78527 10.5858 10.1447C10.2107 10.5042 10 10.9917 10 11.5V34.5C10 35.0083 10.2107 35.4958 10.5858 35.8553C10.9609 36.2147 11.4696 36.4167 12 36.4167H36C36.5304 36.4167 37.0391 36.2147 37.4142 35.8553C37.7893 35.4958 38 35.0083 38 34.5V11.5C38 10.9917 37.7893 10.5042 37.4142 10.1447C37.0391 9.78527 36.5304 9.58333 36 9.58333ZM16 19.1667C16.4899 19.1667 16.9627 19.3391 17.3287 19.651C17.6948 19.963 17.9287 20.3929 17.986 20.8591L18 21.0833V30.6667C17.9994 31.1552 17.8042 31.6251 17.4543 31.9803C17.1044 32.3355 16.6261 32.5493 16.1172 32.5779C15.6083 32.6065 15.1072 32.4479 14.7163 32.1343C14.3254 31.8208 14.0742 31.376 14.014 30.8909L14 30.6667V21.0833C14 20.575 14.2107 20.0875 14.5858 19.728C14.9609 19.3686 15.4696 19.1667 16 19.1667ZM22 17.25C22.4684 17.2499 22.9219 17.4074 23.2816 17.695C23.6412 17.9825 23.8842 18.382 23.968 18.8236C24.3705 18.5999 24.7865 18.3996 25.214 18.2237C26.548 17.6774 28.546 17.3765 30.35 17.9189C31.296 18.2064 32.246 18.7431 32.95 19.6573C33.58 20.4719 33.92 21.4628 33.988 22.5764L34 23V30.6667C33.9994 31.1552 33.8042 31.6251 33.4543 31.9803C33.1044 32.3355 32.6261 32.5493 32.1172 32.5779C31.6083 32.6065 31.1072 32.4479 30.7163 32.1343C30.3254 31.8208 30.0742 31.376 30.014 30.8909L30 30.6667V23C30 22.3675 29.84 22.0723 29.736 21.9362C29.5867 21.7583 29.381 21.6318 29.15 21.5759C28.454 21.3651 27.452 21.4762 26.786 21.7484C25.786 22.1586 24.87 22.8026 24.246 23.3987L24 23.6517V30.6667C23.9994 31.1552 23.8042 31.6251 23.4543 31.9803C23.1044 32.3355 22.6261 32.5493 22.1172 32.5779C21.6083 32.6065 21.1072 32.4479 20.7163 32.1343C20.3254 31.8208 20.0742 31.376 20.014 30.8909L20 30.6667V19.1667C20 18.6583 20.2107 18.1708 20.5858 17.8114C20.9609 17.4519 21.4696 17.25 22 17.25ZM16 13.4167C16.5304 13.4167 17.0391 13.6186 17.4142 13.978C17.7893 14.3375 18 14.825 18 15.3333C18 15.8417 17.7893 16.3292 17.4142 16.6886C17.0391 17.0481 16.5304 17.25 16 17.25C15.4696 17.25 14.9609 17.0481 14.5858 16.6886C14.2107 16.3292 14 15.8417 14 15.3333C14 14.825 14.2107 14.3375 14.5858 13.978C14.9609 13.6186 15.4696 13.4167 16 13.4167Z" fill="#FF9900"/>
</g>
</g>
<defs>
<clipPath id="clip0_18_24">
<rect width="48" height="46" fill="white"/>
</clipPath>
</defs>
</svg>
