<svg width="94" height="92" viewBox="0 0 94 92" fill="none" xmlns="http://www.w3.org/2000/svg">
<g id="pepicons-pencil:gear-circle">
<g id="Group">
<path id="Vector" fill-rule="evenodd" clip-rule="evenodd" d="M40.608 52.256C41.4466 53.0785 42.443 53.7307 43.54 54.1752C44.6369 54.6197 45.8128 54.8477 47 54.8462C49.4295 54.8462 51.7072 53.9014 53.392 52.256C54.2324 51.4352 54.8988 50.46 55.3529 49.3864C55.8071 48.3128 56.0401 47.162 56.0385 46C56.0385 43.6222 55.0732 41.3929 53.392 39.744C52.5534 38.9215 51.557 38.2693 50.46 37.8248C49.3631 37.3803 48.1872 37.1523 47 37.1538C44.5705 37.1538 42.2928 38.0986 40.608 39.744C39.7676 40.5648 39.1012 41.54 38.6471 42.6136C38.1929 43.6872 37.9599 44.838 37.9615 46C37.9615 48.3778 38.9268 50.6071 40.608 52.256ZM50.8359 49.7543C49.8236 50.7451 48.4606 51.3077 47 51.3077C45.5394 51.3077 44.18 50.7415 43.1677 49.7508C42.1554 48.76 41.5769 47.4295 41.5769 46C41.5769 44.5705 42.1554 43.24 43.1677 42.2492C44.18 41.2585 45.5394 40.6923 47 40.6923C48.4606 40.6923 49.82 41.2585 50.8323 42.2492C51.8446 43.24 52.4231 44.5705 52.4231 46C52.4231 47.4295 51.8446 48.76 50.8323 49.7508" fill="#FF9900"/>
<path id="Vector_2" fill-rule="evenodd" clip-rule="evenodd" d="M62.2425 23.966L57.6509 26.4925C56.3082 25.7879 54.8958 25.2188 53.4354 24.794L51.7362 19.7906C51.6169 19.4378 51.3872 19.1307 51.0796 18.9128C50.772 18.695 50.4022 18.5774 50.0225 18.5769H43.6015C43.2075 18.5773 42.8243 18.7036 42.5104 18.9368C42.1964 19.1699 41.9689 19.4971 41.8625 19.8685L40.4453 24.8329C38.9866 25.265 37.5765 25.8412 36.237 26.5526L31.4177 24.1854C31.0779 24.0188 30.693 23.9612 30.3179 24.0209C29.9427 24.0807 29.5964 24.2546 29.328 24.518L24.7835 28.9623C24.5044 29.2355 24.3244 29.5905 24.2708 29.9733C24.2173 30.356 24.2932 30.7453 24.487 31.0818L27.0684 35.5757C26.3489 36.8849 25.7669 38.2649 25.333 39.7015L20.2209 41.3646C19.8604 41.4813 19.5466 41.7061 19.324 42.0072C19.1014 42.3082 18.9813 42.6702 18.9808 43.0418V49.3297C18.9811 49.7154 19.1102 50.0904 19.3484 50.3977C19.5867 50.7049 19.9209 50.9276 20.3004 51.0317L25.3728 52.4188C25.8139 53.8518 26.4032 55.2283 27.1299 56.5375L24.7112 61.2543C24.5409 61.5869 24.4821 61.9635 24.5432 62.3307C24.6042 62.6979 24.7819 63.0369 25.051 63.2995L29.5919 67.7438C29.871 68.017 30.2338 68.1932 30.6249 68.2456C31.0159 68.298 31.4137 68.2236 31.7575 68.034L36.3491 65.5075C37.6868 66.2117 39.0968 66.7814 40.5646 67.206L42.2638 72.2129C42.3837 72.5651 42.6137 72.8714 42.9212 73.0886C43.2288 73.3058 43.5983 73.4228 43.9775 73.4231H50.4021C50.7962 73.4227 51.1793 73.2964 51.4933 73.0632C51.8072 72.8301 52.0347 72.5029 52.1411 72.1315L53.5583 67.1671C55.0171 66.7351 56.4271 66.1589 57.7666 65.4474L62.5859 67.8146C62.9254 67.9817 63.31 68.0398 63.6851 67.9807C64.0603 67.9216 64.4068 67.7484 64.6756 67.4855L69.2165 63.0377C69.4956 62.7645 69.6756 62.4095 69.7292 62.0267C69.7827 61.644 69.7068 61.2547 69.513 60.9181L66.9316 56.4243C67.6511 55.1151 68.2332 53.7351 68.667 52.2985L73.7828 50.6354C74.1426 50.5181 74.4556 50.293 74.6775 49.992C74.8994 49.691 75.0189 49.3293 75.0192 48.9582V42.6738C75.0189 42.2881 74.8898 41.9131 74.6516 41.6059C74.4133 41.2986 74.0791 41.076 73.6996 40.9718L68.6272 39.5848C68.1859 38.157 67.5972 36.777 66.8702 35.466L69.2889 30.7492C69.4595 30.417 69.5189 30.0406 69.4586 29.6734C69.3982 29.3063 69.2212 28.9671 68.9526 28.704L64.4081 24.2597C64.129 23.9866 63.7662 23.8104 63.3752 23.758C62.9841 23.7056 62.5863 23.7799 62.2425 23.9695M58.5403 30.0698L62.8209 27.7097L65.471 30.3034L63.2042 34.7265C63.0677 34.9933 63.0025 35.2897 63.0145 35.5879C63.0265 35.8861 63.1154 36.1765 63.2729 36.432C64.2309 37.9889 64.9504 39.6803 65.4059 41.4495C65.4833 41.7522 65.6412 42.0295 65.8634 42.2532C66.0856 42.4769 66.3644 42.6391 66.6713 42.7234L71.4039 44.0185V47.6878L66.6062 49.2448C66.3173 49.3392 66.0574 49.5035 65.8508 49.7225C65.6441 49.9415 65.4973 50.208 65.424 50.4974C64.975 52.2654 64.2611 53.9586 63.3054 55.522C63.1415 55.7896 63.0529 56.0949 63.0484 56.4068C63.044 56.7188 63.1239 57.0263 63.2801 57.2983L65.6915 61.4878L63.0415 64.0815L58.5222 61.8629C58.2495 61.7294 57.9468 61.6655 57.6421 61.6773C57.3374 61.689 57.0407 61.776 56.7796 61.9302C55.1889 62.8678 53.4607 63.572 51.653 64.0178C51.3437 64.0936 51.0605 64.2481 50.8319 64.4656C50.6033 64.6831 50.4376 64.9559 50.3515 65.2563L49.0282 69.8881H45.2827L43.6919 65.1926C43.5952 64.9094 43.4267 64.6548 43.2023 64.4525C42.9779 64.2501 42.7048 64.1067 42.4085 64.0355C40.602 63.5961 38.872 62.8973 37.2746 61.962C37.0012 61.8016 36.6893 61.7149 36.3706 61.7105C36.0518 61.7062 35.7376 61.7844 35.4597 61.9372L31.1791 64.2974L28.529 61.7037L30.7958 57.2806C30.9323 57.0137 30.9976 56.7174 30.9855 56.4192C30.9735 56.121 30.8846 55.8306 30.7272 55.5751C29.7671 54.0147 29.0482 52.3239 28.5941 50.5575C28.5167 50.2549 28.3588 49.9776 28.1366 49.7539C27.9144 49.5302 27.6357 49.368 27.3287 49.2837L22.5962 47.9886V44.3228L27.3938 42.7658C27.6831 42.6711 27.9433 42.5063 28.15 42.2866C28.3567 42.067 28.5033 41.7997 28.576 41.5097C29.0279 39.7405 29.7438 38.0455 30.6946 36.4851C30.8585 36.2175 30.9471 35.9122 30.9516 35.6003C30.956 35.2883 30.8761 34.9807 30.7199 34.7088L28.3085 30.5157L30.9585 27.922L35.4778 30.1406C35.7505 30.2742 36.0532 30.338 36.3579 30.3263C36.6626 30.3145 36.9593 30.2275 37.2204 30.0734C38.8112 29.1357 40.5393 28.4315 42.347 27.9857C42.6563 27.9099 42.9395 27.7554 43.1681 27.5379C43.3967 27.3204 43.5624 27.0477 43.6485 26.7472L44.9718 22.1154H48.7209L50.3117 26.8109C50.4081 27.0937 50.576 27.348 50.7998 27.5503C51.0235 27.7526 51.2959 27.8963 51.5915 27.968C53.3992 28.4103 55.131 29.1109 56.7254 30.0415C56.9988 30.2019 57.3107 30.2887 57.6294 30.293C57.9482 30.2974 58.2624 30.2192 58.5403 30.0663" fill="#FF9900"/>
<path id="Vector_3" fill-rule="evenodd" clip-rule="evenodd" d="M47 86.6923C69.9613 86.6923 88.5769 68.4728 88.5769 46C88.5769 23.5272 69.9613 5.30769 47 5.30769C24.0387 5.30769 5.42308 23.5272 5.42308 46C5.42308 68.4728 24.0387 86.6923 47 86.6923ZM47 90.2308C71.9606 90.2308 92.1923 70.4295 92.1923 46C92.1923 21.5705 71.9606 1.76923 47 1.76923C22.0394 1.76923 1.80769 21.5705 1.80769 46C1.80769 70.4295 22.0394 90.2308 47 90.2308Z" fill="#FF9900"/>
</g>
</g>
</svg>
