<svg width="70" height="49" viewBox="0 0 70 49" fill="none" xmlns="http://www.w3.org/2000/svg">
<path id="Vector" d="M65.5455 0H4.45455C3.27313 0 2.1401 0.4633 1.30471 1.28798C0.469317 2.11266 0 3.23116 0 4.39744V44.6026C0 45.7688 0.469317 46.8873 1.30471 47.712C2.1401 48.5367 3.27313 49 4.45455 49H65.5455C66.7269 49 67.8599 48.5367 68.6953 47.712C69.5307 46.8873 70 45.7688 70 44.6026V4.39744C70 3.23116 69.5307 2.11266 68.6953 1.28798C67.8599 0.4633 66.7269 0 65.5455 0ZM18.4545 45.2308L23.2273 38.9487H46.7727L51.5455 45.2308H18.4545ZM66.1818 44.6026C66.1818 44.7692 66.1148 44.929 65.9954 45.0468C65.8761 45.1646 65.7142 45.2308 65.5455 45.2308H56.3182L49.2545 35.9333C49.0767 35.6993 48.8461 35.5093 48.581 35.3785C48.316 35.2476 48.0236 35.1795 47.7273 35.1795H22.2727C21.9764 35.1795 21.684 35.2476 21.419 35.3785C21.1539 35.5093 20.9233 35.6993 20.7455 35.9333L13.6818 45.2308H4.45455C4.28577 45.2308 4.12391 45.1646 4.00457 45.0468C3.88523 44.929 3.81818 44.7692 3.81818 44.6026V4.39744C3.81818 4.23083 3.88523 4.07104 4.00457 3.95323C4.12391 3.83542 4.28577 3.76923 4.45455 3.76923H65.5455C65.7142 3.76923 65.8761 3.83542 65.9954 3.95323C66.1148 4.07104 66.1818 4.23083 66.1818 4.39744V44.6026ZM50.2727 10.0513H19.7273C17.1957 10.0513 14.7677 11.0441 12.9776 12.8112C11.1875 14.5784 10.1818 16.9752 10.1818 19.4744C10.1818 21.9735 11.1875 24.3703 12.9776 26.1375C14.7677 27.9047 17.1957 28.8974 19.7273 28.8974H50.2727C52.8043 28.8974 55.2323 27.9047 57.0224 26.1375C58.8125 24.3703 59.8182 21.9735 59.8182 19.4744C59.8182 16.9752 58.8125 14.5784 57.0224 12.8112C55.2323 11.0441 52.8043 10.0513 50.2727 10.0513ZM42.6364 13.8205C41.3932 15.45 40.7209 17.4345 40.7209 19.4744C40.7209 21.5142 41.3932 23.4988 42.6364 25.1282H27.3636C28.6068 23.4988 29.2791 21.5142 29.2791 19.4744C29.2791 17.4345 28.6068 15.45 27.3636 13.8205H42.6364ZM14 19.4744C14 18.3561 14.3359 17.263 14.9652 16.3333C15.5945 15.4035 16.489 14.6788 17.5355 14.2509C18.5821 13.823 19.7336 13.711 20.8446 13.9291C21.9556 14.1473 22.9761 14.6858 23.7771 15.4765C24.578 16.2672 25.1235 17.2746 25.3445 18.3713C25.5655 19.4681 25.4521 20.6049 25.0186 21.638C24.5851 22.6711 23.851 23.5541 22.9092 24.1754C21.9673 24.7966 20.86 25.1282 19.7273 25.1282C18.2083 25.1282 16.7516 24.5325 15.6775 23.4722C14.6034 22.4119 14 20.9739 14 19.4744ZM50.2727 25.1282C49.14 25.1282 48.0327 24.7966 47.0908 24.1754C46.149 23.5541 45.4149 22.6711 44.9814 21.638C44.5479 20.6049 44.4345 19.4681 44.6555 18.3713C44.8765 17.2746 45.422 16.2672 46.2229 15.4765C47.0239 14.6858 48.0444 14.1473 49.1554 13.9291C50.2664 13.711 51.4179 13.823 52.4645 14.2509C53.511 14.6788 54.4055 15.4035 55.0348 16.3333C55.6641 17.263 56 18.3561 56 19.4744C56 20.9739 55.3966 22.4119 54.3225 23.4722C53.2484 24.5325 51.7917 25.1282 50.2727 25.1282Z" fill="#FF9900"/>
</svg>
